<svg width="20" height="20" viewBox="0 0 20 20" fill="none" xmlns="http://www.w3.org/2000/svg">
<path d="M10 20C15.526 20 20 15.5145 20 10C20 4.47399 15.526 0 10 0C4.47399 0 0 4.47399 0 10C0 15.5145 4.47399 20 10 20Z" fill="#4AD1FF"/>
<path d="M8.16194 12.4047L14.4972 5.95387C14.6436 5.79973 14.8209 5.72266 15.029 5.72266C15.2371 5.72266 15.4143 5.79973 15.5608 5.95387C15.7149 6.10801 15.792 6.28915 15.792 6.49725C15.792 6.70534 15.7149 6.88642 15.5608 7.04056L8.68217 14.0464C8.53574 14.1928 8.36233 14.266 8.16194 14.266C7.96155 14.266 7.78814 14.1928 7.64171 14.0464L4.4278 10.7631C4.28137 10.6167 4.20816 10.4394 4.20816 10.2313C4.21587 10.0155 4.2968 9.83439 4.45095 9.68795C4.59738 9.53381 4.77466 9.45674 4.98275 9.45674C5.18313 9.45674 5.36041 9.53381 5.51455 9.68795L8.16194 12.4047Z" fill="#051238"/>
</svg>
