<svg width="248" height="37" viewBox="0 0 248 37" fill="none" xmlns="http://www.w3.org/2000/svg">
<path d="M0.486023 35.1422C0.0122713 35.4261 -0.141666 36.0402 0.142196 36.514C0.426057 36.9877 1.04022 37.1417 1.51398 36.8578L0.486023 35.1422ZM248 36L242.333 25.9391L236.454 35.877L248 36ZM1.51398 36.8578C2.35611 36.3532 3.20045 35.8537 4.047 35.3592L3.03821 33.6322C2.18524 34.1305 1.3345 34.6338 0.486023 35.1422L1.51398 36.8578ZM9.16084 32.4484C10.8785 31.4962 12.6047 30.5646 14.3395 29.6539L13.4098 27.8831C11.6616 28.8009 9.92195 29.7397 8.19114 30.6992L9.16084 32.4484ZM19.5798 26.9793C21.3387 26.1071 23.1059 25.2561 24.8813 24.4267L24.0348 22.6147C22.2452 23.4507 20.464 24.3084 18.6912 25.1876L19.5798 26.9793ZM30.2401 21.9997C32.0373 21.2112 33.8426 20.4446 35.6556 19.7002L34.896 17.85C33.0682 18.6005 31.2483 19.3733 29.4366 20.1682L30.2401 21.9997ZM41.1239 17.5315C42.956 16.8303 44.7959 16.1517 46.6431 15.4958L45.974 13.6111C44.1113 14.2724 42.2563 14.9567 40.409 15.6636L41.1239 17.5315ZM52.2101 13.5958C54.0736 12.9853 55.9443 12.3978 57.8221 11.8336L57.2466 9.9182C55.353 10.4871 53.4665 11.0796 51.5874 11.6952L52.2101 13.5958ZM63.4759 10.2114C65.3666 9.6944 67.2642 9.2009 69.1684 8.7312L68.6894 6.7894C66.7689 7.26312 64.8552 7.76083 62.9484 8.28225L63.4759 10.2114ZM74.8961 7.39473C76.8097 6.97365 78.7297 6.5765 80.6559 6.20355L80.2757 4.24002C78.3329 4.61619 76.3963 5.01676 74.4663 5.44147L74.8961 7.39473ZM86.4436 5.15913C88.3754 4.83587 90.3131 4.53688 92.2567 4.26241L91.9771 2.28206C90.0166 2.55891 88.062 2.8605 86.1135 3.18656L86.4436 5.15913ZM98.0896 3.51455C100.035 3.29038 101.985 3.09074 103.941 2.91585L103.763 0.923799C101.79 1.1002 99.8226 1.30159 97.8607 1.5277L98.0896 3.51455ZM109.804 2.46706C111.758 2.34262 113.716 2.24285 115.679 2.16798L115.603 0.169437C113.623 0.244952 111.647 0.345587 109.677 0.471102L109.804 2.46706ZM121.558 2.01866C122.537 2.00623 123.518 2 124.5 2V0C123.51 0 122.521 0.00628209 121.533 0.0188167L121.558 2.01866ZM124.5 2C125.482 2 126.463 2.00623 127.442 2.01866L127.467 0.0188171C126.479 0.00628221 125.49 0 124.5 0V2ZM133.321 2.16799C135.284 2.24285 137.242 2.34262 139.196 2.46706L139.323 0.471104C137.353 0.345589 135.378 0.244953 133.397 0.169438L133.321 2.16799ZM145.059 2.91585C147.015 3.09074 148.965 3.29039 150.91 3.51455L151.139 1.5277C149.177 1.30159 147.21 1.10021 145.237 0.923801L145.059 2.91585ZM156.743 4.26241C158.687 4.53688 160.625 4.83587 162.556 5.15913L162.886 3.18656C160.938 2.8605 158.983 2.55891 157.023 2.28206L156.743 4.26241ZM168.344 6.20356C170.27 6.57651 172.19 6.97365 174.104 7.39473L174.534 5.44147C172.604 5.01676 170.667 4.61619 168.724 4.24002L168.344 6.20356ZM179.832 8.7312C181.736 9.2009 183.633 9.69439 185.524 10.2114L186.052 8.28225C184.145 7.76083 182.231 7.26312 180.311 6.7894L179.832 8.7312ZM191.178 11.8336C193.056 12.3978 194.926 12.9853 196.79 13.5958L197.413 11.6952C195.534 11.0796 193.647 10.4871 191.753 9.9182L191.178 11.8336ZM202.357 15.4958C204.204 16.1517 206.044 16.8303 207.876 17.5315L208.591 15.6636C206.744 14.9567 204.889 14.2724 203.026 13.6111L202.357 15.4958ZM213.344 19.7002C215.157 20.4446 216.963 21.2112 218.76 21.9997L219.563 20.1682C217.752 19.3733 215.932 18.6005 214.104 17.85L213.344 19.7002ZM224.119 24.4267C225.894 25.2561 227.661 26.1071 229.42 26.9794L230.309 25.1876C228.536 24.3084 226.755 23.4507 224.965 22.6147L224.119 24.4267ZM234.661 29.6539C236.395 30.5646 238.122 31.4962 239.839 32.4484L240.809 30.6992C239.078 29.7397 237.338 28.8009 235.59 27.8831L234.661 29.6539ZM0.486023 35.1422C0.0122713 35.4261 -0.141666 36.0402 0.142196 36.514C0.426057 36.9877 1.04022 37.1417 1.51398 36.8578L0.486023 35.1422ZM248 36L242.333 25.9391L236.454 35.877L248 36ZM1.51398 36.8578C2.35611 36.3532 3.20045 35.8537 4.047 35.3592L3.03821 33.6322C2.18524 34.1305 1.3345 34.6338 0.486023 35.1422L1.51398 36.8578ZM9.16084 32.4484C10.8785 31.4962 12.6047 30.5646 14.3395 29.6539L13.4098 27.8831C11.6616 28.8009 9.92195 29.7397 8.19114 30.6992L9.16084 32.4484ZM19.5798 26.9793C21.3387 26.1071 23.1059 25.2561 24.8813 24.4267L24.0348 22.6147C22.2452 23.4507 20.464 24.3084 18.6912 25.1876L19.5798 26.9793ZM30.2401 21.9997C32.0373 21.2112 33.8426 20.4446 35.6556 19.7002L34.896 17.85C33.0682 18.6005 31.2483 19.3733 29.4366 20.1682L30.2401 21.9997ZM41.1239 17.5315C42.956 16.8303 44.7959 16.1517 46.6431 15.4958L45.974 13.6111C44.1113 14.2724 42.2563 14.9567 40.409 15.6636L41.1239 17.5315ZM52.2101 13.5958C54.0736 12.9853 55.9443 12.3978 57.8221 11.8336L57.2466 9.9182C55.353 10.4871 53.4665 11.0796 51.5874 11.6952L52.2101 13.5958ZM63.4759 10.2114C65.3666 9.6944 67.2642 9.2009 69.1684 8.7312L68.6894 6.7894C66.7689 7.26312 64.8552 7.76083 62.9484 8.28225L63.4759 10.2114ZM74.8961 7.39473C76.8097 6.97365 78.7297 6.5765 80.6559 6.20355L80.2757 4.24002C78.3329 4.61619 76.3963 5.01676 74.4663 5.44147L74.8961 7.39473ZM86.4436 5.15913C88.3754 4.83587 90.3131 4.53688 92.2567 4.26241L91.9771 2.28206C90.0166 2.55891 88.062 2.8605 86.1135 3.18656L86.4436 5.15913ZM98.0896 3.51455C100.035 3.29038 101.985 3.09074 103.941 2.91585L103.763 0.923799C101.79 1.1002 99.8226 1.30159 97.8607 1.5277L98.0896 3.51455ZM109.804 2.46706C111.758 2.34262 113.716 2.24285 115.679 2.16798L115.603 0.169437C113.623 0.244952 111.647 0.345587 109.677 0.471102L109.804 2.46706ZM121.558 2.01866C122.537 2.00623 123.518 2 124.5 2V0C123.51 0 122.521 0.00628209 121.533 0.0188167L121.558 2.01866ZM124.5 2C125.482 2 126.463 2.00623 127.442 2.01866L127.467 0.0188171C126.479 0.00628221 125.49 0 124.5 0V2ZM133.321 2.16799C135.284 2.24285 137.242 2.34262 139.196 2.46706L139.323 0.471104C137.353 0.345589 135.378 0.244953 133.397 0.169438L133.321 2.16799ZM145.059 2.91585C147.015 3.09074 148.965 3.29039 150.91 3.51455L151.139 1.5277C149.177 1.30159 147.21 1.10021 145.237 0.923801L145.059 2.91585ZM156.743 4.26241C158.687 4.53688 160.625 4.83587 162.556 5.15913L162.886 3.18656C160.938 2.8605 158.983 2.55891 157.023 2.28206L156.743 4.26241ZM168.344 6.20356C170.27 6.57651 172.19 6.97365 174.104 7.39473L174.534 5.44147C172.604 5.01676 170.667 4.61619 168.724 4.24002L168.344 6.20356ZM179.832 8.7312C181.736 9.2009 183.633 9.69439 185.524 10.2114L186.052 8.28225C184.145 7.76083 182.231 7.26312 180.311 6.7894L179.832 8.7312ZM191.178 11.8336C193.056 12.3978 194.926 12.9853 196.79 13.5958L197.413 11.6952C195.534 11.0796 193.647 10.4871 191.753 9.9182L191.178 11.8336ZM202.357 15.4958C204.204 16.1517 206.044 16.8303 207.876 17.5315L208.591 15.6636C206.744 14.9567 204.889 14.2724 203.026 13.6111L202.357 15.4958ZM213.344 19.7002C215.157 20.4446 216.963 21.2112 218.76 21.9997L219.563 20.1682C217.752 19.3733 215.932 18.6005 214.104 17.85L213.344 19.7002ZM224.119 24.4267C225.894 25.2561 227.661 26.1071 229.42 26.9794L230.309 25.1876C228.536 24.3084 226.755 23.4507 224.965 22.6147L224.119 24.4267ZM234.661 29.6539C236.395 30.5646 238.122 31.4962 239.839 32.4484L240.809 30.6992C239.078 29.7397 237.338 28.8009 235.59 27.8831L234.661 29.6539Z" fill="#18478B"/>
</svg>
