<svg width="24" height="25" viewBox="0 0 24 25" fill="none" xmlns="http://www.w3.org/2000/svg">
<path d="M12 24.5C18.6312 24.5 24 19.1173 24 12.5C24 5.86879 18.6312 0.5 12 0.5C5.36879 0.5 0 5.86879 0 12.5C0 19.1173 5.36879 24.5 12 24.5Z" fill="#18478B"/>
<path d="M9.7966 15.3857L17.3989 7.64464C17.5746 7.45967 17.7873 7.36719 18.037 7.36719C18.2868 7.36719 18.4995 7.45967 18.6752 7.64464C18.8602 7.82962 18.9527 8.04698 18.9527 8.29669C18.9527 8.54641 18.8602 8.76371 18.6752 8.94868L10.4209 17.3556C10.2452 17.5313 10.0371 17.6192 9.7966 17.6192C9.55614 17.6192 9.34804 17.5313 9.17232 17.3556L5.31563 13.4158C5.13991 13.24 5.05206 13.0273 5.05206 12.7776C5.06131 12.5186 5.15843 12.3013 5.34341 12.1255C5.51913 11.9406 5.73186 11.8481 5.98157 11.8481C6.22203 11.8481 6.43476 11.9406 6.61973 12.1255L9.7966 15.3857Z" fill="white"/>
</svg>
