<svg width="48" height="48" viewBox="0 0 48 48" fill="none" xmlns="http://www.w3.org/2000/svg">
<path fill-rule="evenodd" clip-rule="evenodd" d="M48.0003 24.0302C48.0003 37.2591 37.2594 48 24.0305 48C10.7409 48 0 37.2591 0 24.0302C0 10.7407 10.7409 0 24.0305 0C37.2594 0 48.0003 10.7407 48.0003 24.0302ZM35.3782 22.3312L32.6475 18.3264C31.8586 18.8725 31.191 19.2363 30.6449 19.479V11.7117H25.7903V19.2366C25.3857 19.1153 24.9407 19.0141 24.4553 18.9332C23.545 18.7512 22.6347 18.751 21.6638 18.8117V11.7117H16.8699V19.8435C15.2315 20.4503 13.7751 21.2389 12.6221 22.0278L15.5348 25.9118C15.9394 25.6286 16.3844 25.3657 16.8699 25.123V36.2883H21.6638V23.6059C22.3313 23.5452 22.9988 23.545 23.6056 23.6664C24.0911 23.7877 24.6373 23.9092 25.1834 24.0913C25.3857 24.1317 25.588 24.1923 25.7903 24.2732V31.1913H30.6449V24.5162C31.9799 24.2127 33.5577 23.5449 35.3782 22.3312Z" fill="#051238"/>
<path d="M30.6228 24.5047V31.1798H25.7682V24.2617C25.5659 24.1808 25.3636 24.1202 25.1613 24.0798C24.6152 23.8977 24.069 23.7762 23.5835 23.6549C22.9767 23.5335 22.3092 23.5337 21.6417 23.5944V36.2768H16.8478V25.1115C16.3623 25.3542 15.9173 25.6171 15.5127 25.9003L12.6 22.0163C13.753 21.2274 15.2093 20.4388 16.8478 19.832V11.7002H21.6417V18.8002C22.6126 18.7395 23.5229 18.7397 24.4332 18.9217C24.9186 19.0026 25.3636 19.1038 25.7682 19.2251V11.7002H30.6228V19.4675C31.1689 19.2248 31.8365 18.861 32.6254 18.3149L35.3561 22.3197C33.5356 23.5334 31.9578 24.2012 30.6228 24.5047Z" fill="#00FF94"/>
</svg>
