<svg width="182" height="37" viewBox="0 0 182 37" fill="none" xmlns="http://www.w3.org/2000/svg">
<path fill-rule="evenodd" clip-rule="evenodd" d="M36.0002 18.6926C36.0002 28.6143 27.9446 36.6699 18.0229 36.6699C8.05571 36.6699 0 28.6143 0 18.6926C0 8.72541 8.05571 0.669922 18.0229 0.669922C27.9446 0.669922 36.0002 8.72541 36.0002 18.6926ZM26.5337 17.4183L24.4856 14.4147C23.8939 14.8243 23.3933 15.0971 22.9837 15.2792V9.45369H19.3427V15.0974C19.0393 15.0064 18.7056 14.9305 18.3415 14.8698C17.6588 14.7333 16.976 14.7332 16.2478 14.7787V9.45369H12.6524V15.5525C11.4236 16.0076 10.3313 16.5991 9.46657 17.1908L11.6511 20.1037C11.9545 19.8913 12.2883 19.6942 12.6524 19.5122V27.8862H16.2478V18.3744C16.7485 18.3288 17.2491 18.3287 17.7042 18.4197C18.0683 18.5107 18.478 18.6018 18.8876 18.7384C19.0393 18.7687 19.191 18.8141 19.3427 18.8748V24.0634H22.9837V19.057C23.9849 18.8295 25.1683 18.3286 26.5337 17.4183ZM43.1456 15.5067C43.8738 14.2627 44.8599 13.2921 46.1039 12.5942C47.3176 11.8964 48.698 11.5475 50.2455 11.5475C52.0356 11.5475 53.6134 12.0026 54.9788 12.9129C56.3138 13.8231 57.2544 15.0972 57.8005 16.7357H54.0686C53.7045 15.9771 53.1886 15.4007 52.5211 15.0063C51.8536 14.6118 51.0799 14.4147 50.2 14.4147C49.2594 14.4147 48.425 14.6423 47.6968 15.0974C46.9686 15.5222 46.4074 16.144 46.0129 16.9632C45.6185 17.7521 45.4212 18.6778 45.4212 19.7397C45.4212 20.8017 45.6185 21.7419 46.0129 22.5611C46.4074 23.35 46.9686 23.9723 47.6968 24.4274C48.425 24.8522 49.2594 25.0643 50.2 25.0643C51.0799 25.0643 51.8536 24.8672 52.5211 24.4727C53.1886 24.0783 53.7045 23.5019 54.0686 22.7434H57.8005C57.2544 24.3818 56.3138 25.6563 54.9788 26.5666C53.6438 27.4768 52.066 27.9319 50.2455 27.9319C48.698 27.9319 47.3176 27.5826 46.1039 26.8848C44.8599 26.1869 43.8738 25.2163 43.1456 23.9723C42.4478 22.7283 42.0988 21.3175 42.0988 19.7397C42.0988 18.162 42.4478 16.7507 43.1456 15.5067ZM64.2633 15.4614C64.9308 15.067 65.7045 14.8698 66.5844 14.8698V18.2375H65.7196C64.7184 18.2375 63.9598 18.4805 63.444 18.9659C62.9282 19.4514 62.6703 20.2858 62.6703 21.4691V27.795H59.439V15.0516H62.6703V17.0543C63.0648 16.3565 63.5957 15.8255 64.2633 15.4614ZM79.5098 22.3793H70.1798C70.2709 23.3199 70.6046 24.048 71.1811 24.5638C71.7272 25.0797 72.4251 25.3376 73.2747 25.3376C74.458 25.3376 75.3076 24.8217 75.8234 23.79H79.2823C78.9182 25.034 78.2204 26.0506 77.1888 26.8395C76.1268 27.6283 74.8373 28.0226 73.3203 28.0226C72.1066 28.0226 71.0142 27.7496 70.0433 27.2035C69.042 26.6573 68.2684 25.8838 67.7222 24.8825C67.2064 23.8813 66.9485 22.728 66.9485 21.4233C66.9485 20.1186 67.2064 18.9658 67.7222 17.9646C68.2684 16.9633 69.0269 16.1898 69.9978 15.6436C70.9688 15.0975 72.0763 14.824 73.3203 14.824C74.5339 14.824 75.6262 15.0975 76.5971 15.6436C77.5377 16.1594 78.281 16.8875 78.8272 17.8281C79.343 18.7991 79.6009 19.9064 79.6009 21.1504C79.6009 21.6056 79.5705 22.0152 79.5098 22.3793ZM76.2785 20.2402C76.2482 19.421 75.9448 18.7533 75.3683 18.2375C74.7918 17.752 74.0787 17.5094 73.2291 17.5094C72.4403 17.5094 71.7728 17.752 71.2266 18.2375C70.6805 18.7229 70.3468 19.3906 70.2254 20.2402H76.2785ZM81.2849 17.9646C81.8007 16.9633 82.4985 16.1898 83.3784 15.6436C84.2583 15.0975 85.2444 14.824 86.3367 14.824C87.2773 14.824 88.1117 15.0216 88.8399 15.4161C89.5377 15.8105 90.099 16.2956 90.5238 16.8721V15.0516H93.8008V27.795H90.5238V25.9292C90.1293 26.536 89.5681 27.0366 88.8399 27.431C88.1117 27.8255 87.2622 28.0226 86.2912 28.0226C85.2293 28.0226 84.2583 27.7496 83.3784 27.2035C82.4985 26.627 81.8007 25.838 81.2849 24.8367C80.7691 23.8355 80.5111 22.6827 80.5111 21.378C80.5111 20.1036 80.7691 18.9658 81.2849 17.9646ZM90.0687 19.4211C89.7653 18.8446 89.3557 18.4199 88.8399 18.1468C88.3241 17.8434 87.7628 17.6917 87.1559 17.6917C86.5491 17.6917 85.9878 17.8279 85.472 18.101C84.9865 18.4044 84.577 18.8291 84.2432 19.3753C83.9398 19.9518 83.7881 20.6195 83.7881 21.378C83.7881 22.1365 83.9398 22.8042 84.2432 23.3807C84.577 23.9572 85.0016 24.4123 85.5174 24.7461C86.0332 25.0495 86.5794 25.2012 87.1559 25.2012C87.7628 25.2012 88.3241 25.0495 88.8399 24.7461C89.3557 24.4427 89.7653 24.0025 90.0687 23.426C90.3721 22.8799 90.5238 22.2122 90.5238 21.4233C90.5238 20.6344 90.3721 19.9672 90.0687 19.4211ZM99.9449 17.6917V23.8812C99.9449 24.3059 100.036 24.6094 100.218 24.7914C100.43 25.0038 100.779 25.1101 101.265 25.1101H102.767V27.795H100.764C98.0333 27.795 96.6679 26.4755 96.6679 23.8358V17.6917H95.1661V15.0516H96.6679V11.9115H99.9449V15.0516H102.767V17.6917H99.9449ZM104.633 13.0036C104.268 12.6395 104.086 12.1843 104.086 11.6382C104.086 11.092 104.268 10.6524 104.633 10.3186C104.997 9.95451 105.467 9.77237 106.044 9.77237C106.62 9.77237 107.09 9.95451 107.454 10.3186C107.849 10.6524 108.046 11.092 108.046 11.6382C108.046 12.1843 107.849 12.6395 107.454 13.0036C107.09 13.3677 106.62 13.5498 106.044 13.5498C105.467 13.5498 104.997 13.3677 104.633 13.0036ZM107.636 27.795H104.405V15.0516H107.636V27.795ZM115.283 24.8367L118.468 15.0516H121.927L117.194 27.795H113.28L108.592 15.0516H112.051L115.283 24.8367Z" fill="white"/>
<path fill-rule="evenodd" clip-rule="evenodd" d="M134.079 22.3795H124.749C124.84 23.3201 125.159 24.0482 125.705 24.564C126.281 25.0798 126.979 25.3378 127.799 25.3378C129.012 25.3378 129.862 24.8219 130.347 23.7902H133.852C133.488 25.0342 132.775 26.0508 131.713 26.8397C130.681 27.6285 129.407 28.0228 127.89 28.0228C126.646 28.0228 125.538 27.7498 124.567 27.2037C123.596 26.6575 122.838 25.884 122.292 24.8827C121.745 23.8814 121.472 22.7282 121.472 21.4235C121.472 20.1188 121.745 18.966 122.292 17.9648C122.838 16.9635 123.581 16.19 124.522 15.6438C125.493 15.0977 126.615 14.8242 127.89 14.8242C129.103 14.8242 130.18 15.0977 131.121 15.6438C132.092 16.1596 132.85 16.8877 133.397 17.8283C133.912 18.7992 134.17 19.9066 134.17 21.1506C134.17 21.6057 134.14 22.0154 134.079 22.3795ZM130.848 20.2404C130.818 19.4212 130.514 18.7535 129.938 18.2377C129.361 17.7522 128.648 17.5096 127.799 17.5096C126.979 17.5096 126.312 17.7522 125.796 18.2377C125.25 18.7231 124.901 19.3908 124.749 20.2404H130.848ZM153.058 11.7295V27.7952H149.826V20.9684H142.954V27.7952H139.723V11.7295H142.954V18.3288H149.826V11.7295H153.058ZM166.712 15.0518V27.7952H163.48V26.2023C163.055 26.7485 162.509 27.1886 161.842 27.5223C161.174 27.8258 160.446 27.9775 159.657 27.9775C158.656 27.9775 157.776 27.7649 157.017 27.3401C156.259 26.9153 155.652 26.2935 155.197 25.4743C154.772 24.6551 154.56 23.669 154.56 22.516V15.0518H157.791V22.0609C157.791 23.0925 158.034 23.8814 158.519 24.4276C159.035 24.9737 159.733 25.2467 160.613 25.2467C161.493 25.2467 162.191 24.9737 162.706 24.4276C163.222 23.8814 163.48 23.0925 163.48 22.0609V15.0518H166.712ZM173.083 15.4163C173.811 15.0218 174.646 14.8242 175.586 14.8242C176.679 14.8242 177.665 15.0977 178.545 15.6438C179.425 16.19 180.122 16.9635 180.638 17.9648C181.154 18.9357 181.412 20.0735 181.412 21.3782C181.412 22.6829 181.154 23.8357 180.638 24.8369C180.122 25.8382 179.425 26.6272 178.545 27.2037C177.665 27.7498 176.679 28.0228 175.586 28.0228C174.616 28.0228 173.781 27.8411 173.083 27.477C172.355 27.0826 171.779 26.5816 171.354 25.9747V27.7952H168.122V10.7739H171.354V16.9181C171.779 16.3112 172.355 15.8107 173.083 15.4163ZM177.635 19.3755C177.331 18.8293 176.922 18.4046 176.406 18.1012C175.89 17.8281 175.328 17.6919 174.722 17.6919C174.145 17.6919 173.599 17.8436 173.083 18.147C172.567 18.4201 172.143 18.8448 171.809 19.4213C171.506 19.9977 171.354 20.665 171.354 21.4235C171.354 22.1821 171.506 22.8497 171.809 23.4262C172.143 24.0027 172.567 24.4429 173.083 24.7463C173.599 25.0497 174.145 25.2014 174.722 25.2014C175.328 25.2014 175.89 25.0497 176.406 24.7463C176.922 24.4125 177.331 23.9724 177.635 23.4262C177.938 22.8497 178.09 22.1671 178.09 21.3782C178.09 20.6197 177.938 19.952 177.635 19.3755Z" fill="white"/>
<path d="M22.9835 19.057V24.0633H19.3426V18.8747C19.1909 18.8141 19.0391 18.7686 18.8874 18.7383C18.4778 18.6018 18.0682 18.5106 17.7041 18.4196C17.249 18.3286 16.7483 18.3288 16.2477 18.3743V27.8861H12.6523V19.5121C12.2882 19.6941 11.9544 19.8913 11.651 20.1037L9.46643 17.1907C10.3312 16.599 11.4235 16.0076 12.6523 15.5524V9.45361H16.2477V14.7786C16.9759 14.7331 17.6586 14.7332 18.3413 14.8697C18.7054 14.9304 19.0391 15.0063 19.3426 15.0973V9.45361H22.9835V15.2791C23.3932 15.097 23.8938 14.8242 24.4855 14.4146L26.5335 17.4183C25.1682 18.3285 23.9848 18.8294 22.9835 19.057Z" fill="#051238"/>
</svg>
