<svg width="24" height="25" viewBox="0 0 24 25" fill="none" xmlns="http://www.w3.org/2000/svg">
<g id="Group 44670">
<path id="Path 440" d="M12 24.3242C18.6312 24.3242 24 18.9416 24 12.3242C24 5.69301 18.6312 0.324219 12 0.324219C5.36879 0.324219 0 5.69301 0 12.3242C0 18.9416 5.36879 24.3242 12 24.3242Z" fill="#00FF94"/>
<path id="Path 448" d="M9.7966 15.2099L17.3989 7.46886C17.5746 7.28389 17.7873 7.19141 18.037 7.19141C18.2868 7.19141 18.4995 7.28389 18.6752 7.46886C18.8602 7.65383 18.9527 7.8712 18.9527 8.12091C18.9527 8.37062 18.8602 8.58792 18.6752 8.7729L10.4209 17.1798C10.2452 17.3556 10.0371 17.4434 9.7966 17.4434C9.55614 17.4434 9.34804 17.3556 9.17232 17.1798L5.31563 13.24C5.13991 13.0643 5.05206 12.8515 5.05206 12.6018C5.06131 12.3429 5.15843 12.1255 5.34341 11.9498C5.51913 11.7648 5.73186 11.6723 5.98157 11.6723C6.22203 11.6723 6.43476 11.7648 6.61973 11.9498L9.7966 15.2099Z" fill="#061338"/>
</g>
</svg>
