<svg width="48" height="48" viewBox="0 0 48 48" fill="none" xmlns="http://www.w3.org/2000/svg">
<rect width="48" height="48" fill="#F5F5F5"/>
<g id="Desktop - HR - 1 " clip-path="url(#clip0_1232_522)">
<rect width="1440" height="20814" transform="translate(-999 -9404)" fill="white"/>
<g id="Group 1597880452">
<g id="Row">
<g id="Card" filter="url(#filter0_d_1232_522)">
<rect x="-32" y="-32" width="416" height="165" rx="16" fill="white" shape-rendering="crispEdges"/>
<rect x="-32.5" y="-32.5" width="417" height="166" rx="16.5" stroke="#051238" stroke-opacity="0.2" shape-rendering="crispEdges"/>
<g id="Content">
<g id="Frame 1000003389">
<g id="Title">
<g id="Group 44671">
<path id="Path 440" d="M24 48C37.2624 48 48 37.2347 48 24C48 10.7376 37.2624 0 24 0C10.7376 0 0 10.7376 0 24C0 37.2347 10.7376 48 24 48Z" fill="#18478B"/>
<path id="Path 448" d="M19.5936 29.7713L34.7981 14.2893C35.1496 13.9193 35.575 13.7344 36.0745 13.7344C36.5739 13.7344 36.9993 13.9193 37.3508 14.2893C37.7207 14.6592 37.9057 15.094 37.9057 15.5934C37.9057 16.0928 37.7207 16.5274 37.3508 16.8974L20.8421 33.7113C20.4907 34.0627 20.0745 34.2384 19.5936 34.2384C19.1126 34.2384 18.6965 34.0627 18.345 33.7113L10.6316 25.8315C10.2802 25.4801 10.1045 25.0546 10.1045 24.5552C10.123 24.0373 10.3172 23.6025 10.6872 23.2511C11.0386 22.8811 11.4641 22.6962 11.9635 22.6962C12.4444 22.6962 12.8699 22.8811 13.2398 23.2511L19.5936 29.7713Z" fill="white"/>
</g>
</g>
</g>
</g>
</g>
</g>
</g>
</g>
<defs>
<filter id="filter0_d_1232_522" x="-63" y="-59" width="478" height="227" filterUnits="userSpaceOnUse" color-interpolation-filters="sRGB">
<feFlood flood-opacity="0" result="BackgroundImageFix"/>
<feColorMatrix in="SourceAlpha" type="matrix" values="0 0 0 0 0 0 0 0 0 0 0 0 0 0 0 0 0 0 127 0" result="hardAlpha"/>
<feOffset dy="4"/>
<feGaussianBlur stdDeviation="15"/>
<feComposite in2="hardAlpha" operator="out"/>
<feColorMatrix type="matrix" values="0 0 0 0 0.396078 0 0 0 0 0.466667 0 0 0 0 0.513726 0 0 0 0.1 0"/>
<feBlend mode="normal" in2="BackgroundImageFix" result="effect1_dropShadow_1232_522"/>
<feBlend mode="normal" in="SourceGraphic" in2="effect1_dropShadow_1232_522" result="shape"/>
</filter>
<clipPath id="clip0_1232_522">
<rect width="1440" height="20814" fill="white" transform="translate(-999 -9404)"/>
</clipPath>
</defs>
</svg>
