<svg width="67" height="68" viewBox="0 0 67 68" fill="none" xmlns="http://www.w3.org/2000/svg">
<g id="Frame 1597880658">
<circle id="Ellipse 1124" cx="33.5" cy="34.1699" r="33.5" fill="#051238"/>
<path id="Path 555" d="M43.136 35.426V45.2038H36.096V35.0701C35.8026 34.9516 35.5093 34.8629 35.216 34.8036C34.424 34.5369 33.6319 34.359 32.9279 34.1812C32.0479 34.0034 31.0799 34.0038 30.1119 34.0927V52.6699H23.16V36.3149C22.456 36.6704 21.8106 37.0555 21.2239 37.4703L17 31.781C18.672 30.6255 20.784 29.4703 23.16 28.5814V16.6699H30.1119V27.0701C31.5199 26.9812 32.84 26.9814 34.16 27.248C34.864 27.3666 35.5093 27.5147 36.096 27.6925V16.6699H43.136V28.0475C43.928 27.692 44.896 27.1592 46.04 26.3592L50 32.2255C47.36 34.0033 45.072 34.9816 43.136 35.426Z" fill="#00FF94"/>
</g>
</svg>
