<svg width="48" height="48" viewBox="0 0 48 48" fill="none" xmlns="http://www.w3.org/2000/svg">
<g clip-path="url(#clip0_0_2163)">
<path d="M24 48C37.2548 48 48 37.2548 48 24C48 10.7452 37.2548 0 24 0C10.7452 0 0 10.7452 0 24C0 37.2548 10.7452 48 24 48Z" fill="#0052B4"/>
<path d="M24.0005 9.3916L24.7776 11.7831H27.292L25.2577 13.261L26.0348 15.6525L24.0005 14.1744L21.9662 15.6525L22.7433 13.261L20.709 11.7831H23.2235L24.0005 9.3916Z" fill="#FFDA44"/>
<path d="M13.6703 13.6703L15.9109 14.8118L17.6888 13.034L17.2954 15.5174L19.5359 16.659L17.0524 17.0524L16.659 19.536L15.5174 17.2955L13.034 17.6889L14.8119 15.911L13.6703 13.6703Z" fill="#FFDA44"/>
<path d="M9.3916 24.0005L11.7831 23.2235V20.709L13.2609 22.7434L15.6525 21.9663L14.1744 24.0005L15.6525 26.0348L13.2609 25.2578L11.7831 27.2921V24.7776L9.3916 24.0005Z" fill="#FFDA44"/>
<path d="M13.6703 34.3302L14.8118 32.0896L13.034 30.3116L15.5175 30.7052L16.6589 28.4647L17.0524 30.9482L19.5358 31.3416L17.2956 32.4832L17.6888 34.9666L15.9109 33.1886L13.6703 34.3302Z" fill="#FFDA44"/>
<path d="M24.0005 38.6093L23.2234 36.2179H20.709L22.7434 34.7399L21.9662 32.3486L24.0005 33.8265L26.0348 32.3486L25.2577 34.7399L27.292 36.2179H24.7775L24.0005 38.6093Z" fill="#FFDA44"/>
<path d="M34.3302 34.3302L32.0897 33.1887L30.3116 34.9667L30.7051 32.4831L28.4648 31.3416L30.9482 30.9482L31.3416 28.4647L32.4831 30.7052L34.9665 30.3116L33.1885 32.0898L34.3302 34.3302Z" fill="#FFDA44"/>
<path d="M38.6093 24.0005L36.2179 24.7776V27.2921L34.7399 25.2577L32.3486 26.0348L33.8266 24.0005L32.3486 21.9663L34.74 22.7434L36.2179 20.709V23.2235L38.6093 24.0005Z" fill="#FFDA44"/>
<path d="M34.3302 13.6703L33.1886 15.911L34.9666 17.6889L32.483 17.2954L31.3416 19.5359L30.9482 17.0524L28.4648 16.6589L30.7051 15.5174L30.3116 13.0341L32.0898 14.8119L34.3302 13.6703Z" fill="#FFDA44"/>
</g>
<defs>
<clipPath id="clip0_0_2163">
<rect width="48" height="48" fill="white"/>
</clipPath>
</defs>
</svg>
