<svg width="166" height="37" viewBox="0 0 166 37" fill="none" xmlns="http://www.w3.org/2000/svg">
<path fill-rule="evenodd" clip-rule="evenodd" d="M3.75 11.3721C3.05964 11.3721 2.5 11.9317 2.5 12.6221V25.1221C2.5 25.8124 3.05964 26.3721 3.75 26.3721H16.25C16.9403 26.3721 17.5 25.8124 17.5 25.1221V12.6221C17.5 11.9317 16.9403 11.3721 16.25 11.3721H3.75ZM7.10063 14.7077C7.10532 15.5045 6.50884 15.9956 5.80102 15.992C5.13422 15.9885 4.55297 15.4577 4.55649 14.7088C4.56001 14.0045 5.11665 13.4385 5.8397 13.4549C6.57329 13.4713 7.10532 14.0092 7.10063 14.7077ZM10.2331 17.0069H8.13309H8.13192V24.1401H10.3514V23.9737C10.3514 23.6571 10.3512 23.3404 10.3509 23.0237C10.3502 22.1788 10.3495 21.3331 10.3538 20.4885C10.355 20.2834 10.3643 20.0702 10.4171 19.8744C10.6151 19.1432 11.2726 18.6709 12.0062 18.787C12.4773 18.8607 12.7889 19.1338 12.9202 19.578C13.0011 19.8557 13.0374 20.1545 13.0409 20.444C13.0504 21.317 13.0491 22.19 13.0477 23.0631C13.0472 23.3712 13.0468 23.6796 13.0468 23.9877V24.1389H15.2733V23.9678C15.2733 23.5912 15.2732 23.2146 15.2729 22.838C15.2725 21.8967 15.272 20.9555 15.2745 20.0139C15.2757 19.5885 15.23 19.169 15.1257 18.7577C14.9698 18.1459 14.6476 17.6397 14.1237 17.2741C13.7522 17.0139 13.3444 16.8463 12.8886 16.8276C12.8367 16.8254 12.7843 16.8226 12.7317 16.8197C12.4987 16.8071 12.2618 16.7943 12.0389 16.8393C11.4014 16.967 10.8413 17.2588 10.4182 17.7732C10.3691 17.8322 10.321 17.8922 10.2492 17.9816L10.2331 18.0018V17.0069ZM4.7347 24.1424H6.94368V17.0115H4.7347V24.1424Z" fill="white" fill-opacity="0.8"/>
<path d="M29.12 23.6699V13.5899H30.366V22.4869H35.042V23.6699H29.12ZM36.0661 14.7729V13.4849H37.3121V14.7729H36.0661ZM36.0661 23.6699V16.1099H37.3121V23.6699H36.0661ZM44.4954 23.6699V19.8829C44.4954 19.5236 44.4628 19.1783 44.3974 18.8469C44.3368 18.5156 44.2271 18.2193 44.0684 17.9579C43.9144 17.6919 43.7044 17.4819 43.4384 17.3279C43.1771 17.1739 42.8458 17.0969 42.4444 17.0969C42.1318 17.0969 41.8471 17.1506 41.5904 17.2579C41.3384 17.3606 41.1214 17.5193 40.9394 17.7339C40.7574 17.9486 40.6151 18.2193 40.5124 18.5459C40.4144 18.8679 40.3654 19.2483 40.3654 19.6869L39.5464 19.4349C39.5464 18.7023 39.6771 18.0746 39.9384 17.5519C40.2044 17.0246 40.5754 16.6209 41.0514 16.3409C41.5321 16.0563 42.0968 15.9139 42.7454 15.9139C43.2354 15.9139 43.6531 15.9909 43.9984 16.1449C44.3438 16.2989 44.6308 16.5043 44.8594 16.7609C45.0881 17.0129 45.2678 17.2976 45.3984 17.6149C45.5291 17.9276 45.6201 18.2473 45.6714 18.5739C45.7274 18.8959 45.7554 19.2016 45.7554 19.4909V23.6699H44.4954ZM39.1054 23.6699V16.1099H40.2254V18.1329H40.3654V23.6699H39.1054ZM47.2683 23.6699L47.2753 13.5899H48.5353V19.7499L51.7063 16.1099H53.3233L49.9843 19.8899L53.7153 23.6699H51.9723L48.5353 20.0299V23.6699H47.2683ZM57.2513 23.8799C56.5093 23.8799 55.8606 23.7166 55.3053 23.3899C54.7546 23.0586 54.3253 22.5989 54.0173 22.0109C53.7093 21.4183 53.5553 20.7276 53.5553 19.9389C53.5553 19.1129 53.707 18.3989 54.0103 17.7969C54.3136 17.1903 54.736 16.7236 55.2773 16.3969C55.8233 16.0656 56.4626 15.8999 57.1953 15.8999C57.956 15.8999 58.6023 16.0749 59.1343 16.4249C59.671 16.7749 60.0723 17.2743 60.3383 17.9229C60.609 18.5716 60.7256 19.3439 60.6883 20.2399H59.4283V19.7919C59.4143 18.8633 59.2253 18.1703 58.8613 17.7129C58.4973 17.2509 57.956 17.0199 57.2373 17.0199C56.4673 17.0199 55.8816 17.2673 55.4803 17.7619C55.079 18.2566 54.8783 18.9659 54.8783 19.8899C54.8783 20.7813 55.079 21.4719 55.4803 21.9619C55.8816 22.4519 56.4533 22.6969 57.1953 22.6969C57.6946 22.6969 58.1286 22.5826 58.4973 22.3539C58.866 22.1253 59.1553 21.7963 59.3653 21.3669L60.5623 21.7799C60.2683 22.4473 59.825 22.9653 59.2323 23.3339C58.6443 23.6979 57.984 23.8799 57.2513 23.8799ZM54.4583 20.2399V19.2389H60.0443V20.2399H54.4583ZM64.9148 23.8799C64.2101 23.8799 63.6058 23.7049 63.1018 23.3549C62.5978 23.0003 62.2081 22.5219 61.9328 21.9199C61.6621 21.3179 61.5268 20.6389 61.5268 19.8829C61.5268 19.1269 61.6621 18.4479 61.9328 17.8459C62.2081 17.2439 62.5978 16.7703 63.1018 16.4249C63.6058 16.0749 64.2078 15.8999 64.9078 15.8999C65.6218 15.8999 66.2215 16.0726 66.7068 16.4179C67.1921 16.7633 67.5585 17.2369 67.8058 17.8389C68.0578 18.4409 68.1838 19.1223 68.1838 19.8829C68.1838 20.6343 68.0578 21.3133 67.8058 21.9199C67.5585 22.5219 67.1921 23.0003 66.7068 23.3549C66.2215 23.7049 65.6241 23.8799 64.9148 23.8799ZM65.0688 22.7389C65.5775 22.7389 65.9951 22.6176 66.3218 22.3749C66.6485 22.1276 66.8888 21.7893 67.0428 21.3599C67.2015 20.9259 67.2808 20.4336 67.2808 19.8829C67.2808 19.3229 67.2015 18.8306 67.0428 18.4059C66.8888 17.9766 66.6508 17.6429 66.3288 17.4049C66.0068 17.1623 65.5985 17.0409 65.1038 17.0409C64.5905 17.0409 64.1658 17.1669 63.8298 17.4189C63.4985 17.6709 63.2511 18.0116 63.0878 18.4409C62.9291 18.8703 62.8498 19.3509 62.8498 19.8829C62.8498 20.4196 62.9315 20.9049 63.0948 21.3389C63.2581 21.7683 63.5031 22.1089 63.8298 22.3609C64.1611 22.6129 64.5741 22.7389 65.0688 22.7389ZM67.2808 23.6699V18.1049H67.1408V13.5899H68.3938V23.6699H67.2808ZM72.6977 23.6699V13.5899H73.9437V23.6699H72.6977ZM81.1271 23.6699V19.8829C81.1271 19.5236 81.0944 19.1783 81.0291 18.8469C80.9684 18.5156 80.8587 18.2193 80.7001 17.9579C80.5461 17.6919 80.3361 17.4819 80.0701 17.3279C79.8087 17.1739 79.4774 17.0969 79.0761 17.0969C78.7634 17.0969 78.4787 17.1506 78.2221 17.2579C77.9701 17.3606 77.7531 17.5193 77.5711 17.7339C77.3891 17.9486 77.2467 18.2193 77.1441 18.5459C77.0461 18.8679 76.9971 19.2483 76.9971 19.6869L76.1781 19.4349C76.1781 18.7023 76.3087 18.0746 76.5701 17.5519C76.8361 17.0246 77.2071 16.6209 77.6831 16.3409C78.1637 16.0563 78.7284 15.9139 79.3771 15.9139C79.8671 15.9139 80.2847 15.9909 80.6301 16.1449C80.9754 16.2989 81.2624 16.5043 81.4911 16.7609C81.7197 17.0129 81.8994 17.2976 82.0301 17.6149C82.1607 17.9276 82.2517 18.2473 82.3031 18.5739C82.3591 18.8959 82.3871 19.2016 82.3871 19.4909V23.6699H81.1271ZM75.7371 23.6699V16.1099H76.8571V18.1329H76.9971V23.6699H75.7371Z" fill="white" fill-opacity="0.8"/>
</svg>
