<svg width="20" height="21" viewBox="0 0 20 21" fill="none" xmlns="http://www.w3.org/2000/svg">
<g id="vuesax/bold/facebook">
<g id="facebook">
<path id="Vector" d="M18.3333 14.1614C18.3333 17.1948 16.525 19.0031 13.4917 19.0031H12.5C12.0417 19.0031 11.6667 18.6281 11.6667 18.1698V13.3614C11.6667 13.1364 11.85 12.9448 12.075 12.9448L13.5417 12.9198C13.6583 12.9114 13.7583 12.8281 13.7833 12.7114L14.075 11.1198C14.1 10.9698 13.9833 10.8281 13.825 10.8281L12.05 10.8531C11.8166 10.8531 11.6333 10.6698 11.625 10.4448L11.5917 8.40309C11.5917 8.26976 11.7 8.1531 11.8417 8.1531L13.8416 8.11976C13.9833 8.11976 14.0917 8.01144 14.0917 7.86977L14.0583 5.86975C14.0583 5.72808 13.95 5.61976 13.8083 5.61976L11.5583 5.6531C10.175 5.6781 9.075 6.81143 9.1 8.19476L9.14166 10.4864C9.14999 10.7198 8.96667 10.9031 8.73333 10.9114L7.73332 10.9281C7.59166 10.9281 7.48333 11.0364 7.48333 11.1781L7.50833 12.7614C7.50833 12.9031 7.61665 13.0114 7.75832 13.0114L8.75833 12.9948C8.99166 12.9948 9.17498 13.1781 9.18331 13.4031L9.25831 18.1531C9.26664 18.6198 8.89164 19.0031 8.42498 19.0031H6.50832C3.47499 19.0031 1.66666 17.1948 1.66666 14.1531V7.17809C1.66666 4.14476 3.47499 2.33643 6.50832 2.33643H13.4917C16.525 2.33643 18.3333 4.14476 18.3333 7.17809V14.1614Z" fill="white" fill-opacity="0.8"/>
</g>
</g>
</svg>
