<svg width="45" height="40" viewBox="0 0 45 40" fill="none" xmlns="http://www.w3.org/2000/svg">
<path fill-rule="evenodd" clip-rule="evenodd" d="M22.5 40C21.9857 40 21.4571 39.8997 20.9142 39.6987C20.3713 39.4978 19.8857 39.1964 19.4571 38.7945L15.5571 35.2208C11.5856 31.5753 8.00008 27.9441 4.80008 24.3273C1.60008 20.7392 0 16.7779 0 12.4435C0 8.88407 1.17151 5.92765 3.51437 3.57387C5.8858 1.19137 8.84282 0 12.3857 0C14.3571 0 16.2286 0.416177 18 1.24861C19.7714 2.10976 21.2714 3.27234 22.5 4.73628C23.7286 3.27234 25.2286 2.10976 27 1.24861C28.7714 0.416177 30.6429 0 32.6143 0C36.1572 0 39.1142 1.19137 41.4856 3.57387C43.8285 5.92765 45 8.88407 45 12.4435C45 16.7779 43.4142 20.7536 40.2428 24.3704C37.0428 27.9872 33.4143 31.6326 29.3571 35.3068L25.5429 38.7945C25.1143 39.1964 24.6287 39.4978 24.0858 39.6987C23.5429 39.8997 23.0143 40 22.5 40ZM20.3571 9.25728C19.2714 7.70722 18.1142 6.53045 16.8857 5.72672C15.6285 4.92299 14.1285 4.521 12.3857 4.521C10.1285 4.521 8.24294 5.2818 6.72866 6.80315C5.24294 8.29579 4.5 10.1758 4.5 12.4435C4.5 14.3954 5.18563 16.4765 6.55706 18.6867C7.95706 20.897 9.62857 23.0357 11.5714 25.1024C13.4857 27.1692 15.4714 29.1067 17.5285 30.9151C19.5571 32.7235 21.2143 34.2161 22.5 35.393C23.7857 34.2161 25.4429 32.7235 27.4715 30.9151C29.5286 29.1067 31.5143 27.1692 33.4286 25.1024C35.3714 23.0357 37.0429 20.897 38.4429 18.6867C39.8144 16.4765 40.5 14.3954 40.5 12.4435C40.5 10.1758 39.7571 8.29579 38.2713 6.80315C36.7571 5.2818 34.8715 4.521 32.6143 4.521C30.8715 4.521 29.3715 4.92299 28.1143 5.72672C26.8858 6.53045 25.7286 7.70722 24.6429 9.25728C24.3857 9.63044 24.0713 9.91748 23.6999 10.1184C23.2999 10.3194 22.9 10.4199 22.5 10.4199C22.1 10.4199 21.7001 10.3194 21.3001 10.1184C20.9287 9.91748 20.6143 9.63044 20.3571 9.25728Z" fill="#4AD1FF"/>
</svg>
