<svg width="24" height="24" viewBox="0 0 24 24" fill="none" xmlns="http://www.w3.org/2000/svg">
<path d="M12 24C18.6312 24 24 18.6173 24 12C24 5.36879 18.6312 0 12 0C5.36879 0 0 5.36879 0 12C0 18.6173 5.36879 24 12 24Z" fill="white"/>
<path d="M9.7966 14.8857L17.3989 7.14464C17.5746 6.95967 17.7873 6.86719 18.037 6.86719C18.2868 6.86719 18.4995 6.95967 18.6752 7.14464C18.8602 7.32962 18.9527 7.54698 18.9527 7.79669C18.9527 8.04641 18.8602 8.26371 18.6752 8.44868L10.4209 16.8556C10.2452 17.0313 10.0371 17.1192 9.7966 17.1192C9.55614 17.1192 9.34804 17.0313 9.17232 16.8556L5.31563 12.9158C5.13991 12.74 5.05206 12.5273 5.05206 12.2776C5.06131 12.0186 5.15843 11.8013 5.34341 11.6255C5.51913 11.4406 5.73186 11.3481 5.98157 11.3481C6.22203 11.3481 6.43476 11.4406 6.61973 11.6255L9.7966 14.8857Z" fill="#051238"/>
</svg>
