<svg width="20" height="21" viewBox="0 0 20 21" fill="none" xmlns="http://www.w3.org/2000/svg">
<g id="vuesax/linear/instagram">
<g id="instagram">
<path id="Vector" d="M7.49999 19.0031H12.5C16.6667 19.0031 18.3333 17.3364 18.3333 13.1698V8.16976C18.3333 4.00309 16.6667 2.33643 12.5 2.33643H7.49999C3.33332 2.33643 1.66666 4.00309 1.66666 8.16976V13.1698C1.66666 17.3364 3.33332 19.0031 7.49999 19.0031Z" stroke="white" stroke-opacity="0.8" stroke-width="1.5" stroke-linecap="round" stroke-linejoin="round"/>
<path id="Vector_2" d="M10 13.5868C11.6108 13.5868 12.9167 12.2809 12.9167 10.6701C12.9167 9.05925 11.6108 7.75342 10 7.75342C8.38918 7.75342 7.08334 9.05925 7.08334 10.6701C7.08334 12.2809 8.38918 13.5868 10 13.5868Z" stroke="white" stroke-opacity="0.8" stroke-width="1.5" stroke-linecap="round" stroke-linejoin="round"/>
<path id="Vector_3" d="M14.6968 6.50309H14.7064" stroke="white" stroke-opacity="0.8" stroke-width="1.5" stroke-linecap="round" stroke-linejoin="round"/>
</g>
</g>
</svg>
