<svg width="48" height="48" viewBox="0 0 48 48" fill="none" xmlns="http://www.w3.org/2000/svg">
<path d="M24 48C37.2624 48 48 37.2624 48 24C48 10.7376 37.2624 0 24 0C10.7376 0 0 10.7376 0 24C0 37.2624 10.7376 48 24 48Z" fill="#18478B"/>
<path d="M32.2936 17.655C32.1886 17.64 32.0836 17.64 31.9786 17.655C29.6536 17.58 27.8086 15.675 27.8086 13.335C27.8086 10.95 29.7436 9 32.1436 9C34.5286 9 36.4786 10.935 36.4786 13.335C36.4636 15.675 34.6186 17.58 32.2936 17.655Z" fill="white"/>
<path d="M37.1873 28.0506C35.5073 29.1756 33.1523 29.5956 30.9773 29.3106C31.5473 28.0806 31.8473 26.7156 31.8623 25.2756C31.8623 23.7756 31.5323 22.3506 30.9023 21.1056C33.1223 20.8056 35.4773 21.2256 37.1723 22.3506C39.5423 23.9106 39.5423 26.4756 37.1873 28.0506Z" fill="white"/>
<path d="M15.6544 17.655C15.7594 17.64 15.8644 17.64 15.9694 17.655C18.2944 17.58 20.1394 15.675 20.1394 13.335C20.1394 10.935 18.2044 9 15.8044 9C13.4194 9 11.4844 10.935 11.4844 13.335C11.4844 15.675 13.3294 17.58 15.6544 17.655Z" fill="white"/>
<path d="M15.8325 25.2759C15.8325 26.7309 16.1475 28.1109 16.7175 29.3559C14.6025 29.5809 12.3975 29.1309 10.7775 28.0659C8.4075 26.4909 8.4075 23.9259 10.7775 22.3509C12.3825 21.2709 14.6475 20.8359 16.7775 21.0759C16.1625 22.3359 15.8325 23.7609 15.8325 25.2759Z" fill="white"/>
<path d="M24.1753 29.805C24.0553 29.79 23.9203 29.79 23.7853 29.805C21.0253 29.715 18.8203 27.45 18.8203 24.66C18.8353 21.81 21.1303 19.5 23.9953 19.5C26.8453 19.5 29.1553 21.81 29.1553 24.66C29.1403 27.45 26.9503 29.715 24.1753 29.805Z" fill="white"/>
<path d="M19.3003 32.9109C17.0353 34.4259 17.0353 36.9159 19.3003 38.4159C21.8803 40.1409 26.1103 40.1409 28.6903 38.4159C30.9553 36.9009 30.9553 34.4109 28.6903 32.9109C26.1253 31.1859 21.8953 31.1859 19.3003 32.9109Z" fill="white"/>
</svg>
