<svg width="28" height="40" viewBox="0 0 28 40" fill="none" xmlns="http://www.w3.org/2000/svg">
<path fill-rule="evenodd" clip-rule="evenodd" d="M8.25453 25.9627H2.05322C1.23724 25.9627 0.638693 25.6045 0.257903 24.8883C-0.122887 24.1456 -0.0819681 23.4427 0.38042 22.7795L15.3535 1.09418C15.6799 0.643228 16.1015 0.324949 16.6183 0.139264C17.1623 -0.0464213 17.7199 -0.0464213 18.2911 0.139264C18.8623 0.351475 19.2703 0.709466 19.5151 1.21347C19.7871 1.71747 19.8958 2.248 19.8414 2.80506L18.2503 15.896H26.0021C26.8452 15.896 27.4436 16.2806 27.7972 17.0499C28.1508 17.8191 28.0421 18.5353 27.4709 19.1985L11.029 39.0535C10.6754 39.5044 10.2265 39.7963 9.6825 39.9289C9.16571 40.0616 8.649 40.0086 8.13222 39.7698C7.64263 39.5311 7.24828 39.1729 6.94909 38.6954C6.67709 38.1914 6.56818 37.6609 6.62258 37.1038L8.25453 25.9627ZM11.3553 32.4087L21.7182 19.9146H13.7215L15.1495 8.45527L5.92911 21.9439H12.8649L11.3553 32.4087Z" fill="#8C94A0"/>
</svg>
