<svg width="48" height="48" viewBox="0 0 48 48" fill="none" xmlns="http://www.w3.org/2000/svg">
<path d="M24 48C37.2624 48 48 37.2624 48 24C48 10.7376 37.2624 0 24 0C10.7376 0 0 10.7376 0 24C0 37.2624 10.7376 48 24 48Z" fill="#18478B"/>
<path d="M34.8131 15.5422C33.2531 12.3922 30.2381 10.0672 26.7431 9.30221C23.0831 8.49221 19.3331 9.36221 16.4681 11.6722C13.5881 13.9672 11.9531 17.4022 11.9531 21.0772C11.9531 24.9622 14.2781 29.0272 17.7881 31.3822V32.6272C17.7731 33.0472 17.7581 33.6922 18.2681 34.2172C18.7931 34.7572 19.5731 34.8172 20.1881 34.8172H27.8831C28.6931 34.8172 29.3081 34.5922 29.7281 34.1722C30.2981 33.5872 30.2831 32.8372 30.2681 32.4322V31.3822C34.9181 28.2472 37.8431 21.6322 34.8131 15.5422Z" fill="white"/>
<path d="M28.8946 38.9977C28.8046 38.9977 28.6996 38.9827 28.6096 38.9527C25.5946 38.0977 22.4296 38.0977 19.4146 38.9527C18.8596 39.1027 18.2746 38.7877 18.1246 38.2327C17.9596 37.6777 18.2896 37.0927 18.8446 36.9427C22.2346 35.9827 25.8046 35.9827 29.1946 36.9427C29.7496 37.1077 30.0796 37.6777 29.9146 38.2327C29.7646 38.6977 29.3446 38.9977 28.8946 38.9977Z" fill="white"/>
</svg>
