<svg width="20" height="21" viewBox="0 0 20 21" fill="none" xmlns="http://www.w3.org/2000/svg">
<g id="Icon / LinkedIn">
<path id="Vector" fill-rule="evenodd" clip-rule="evenodd" d="M3.75 3.37207C3.05964 3.37207 2.5 3.93171 2.5 4.62207V17.1221C2.5 17.8124 3.05964 18.3721 3.75 18.3721H16.25C16.9403 18.3721 17.5 17.8124 17.5 17.1221V4.62207C17.5 3.93171 16.9403 3.37207 16.25 3.37207H3.75ZM7.10063 6.70767C7.10532 7.50455 6.50884 7.99556 5.80102 7.99205C5.13422 7.98853 4.55297 7.45767 4.55649 6.70885C4.56001 6.00455 5.11665 5.43853 5.8397 5.45494C6.57329 5.47135 7.10532 6.00924 7.10063 6.70767ZM10.2331 9.00687H8.13309H8.13192V16.1401H10.3514V15.9737C10.3514 15.6571 10.3512 15.3404 10.3509 15.0237C10.3502 14.1788 10.3495 13.3331 10.3538 12.4885C10.355 12.2834 10.3643 12.0702 10.4171 11.8744C10.6151 11.1432 11.2726 10.6709 12.0062 10.787C12.4773 10.8607 12.7889 11.1338 12.9202 11.578C13.0011 11.8557 13.0374 12.1545 13.0409 12.444C13.0504 13.317 13.0491 14.19 13.0477 15.0631C13.0472 15.3712 13.0468 15.6796 13.0468 15.9877V16.1389H15.2733V15.9678C15.2733 15.5912 15.2732 15.2146 15.2729 14.838C15.2725 13.8967 15.272 12.9555 15.2745 12.0139C15.2757 11.5885 15.23 11.169 15.1257 10.7577C14.9698 10.1459 14.6476 9.63965 14.1237 9.27407C13.7522 9.0139 13.3444 8.84632 12.8886 8.82757C12.8367 8.82541 12.7843 8.82259 12.7317 8.81975C12.4987 8.80715 12.2618 8.79435 12.0389 8.83929C11.4014 8.96702 10.8413 9.25882 10.4182 9.77324C10.3691 9.83224 10.321 9.89215 10.2492 9.98157L10.2331 10.0018V9.00687ZM4.7347 16.1424H6.94368V9.01151H4.7347V16.1424Z" fill="white" fill-opacity="0.8"/>
</g>
</svg>
