<svg width="182" height="36" viewBox="0 0 182 36" fill="none" xmlns="http://www.w3.org/2000/svg">
<path fill-rule="evenodd" clip-rule="evenodd" d="M36.0002 18.0227C36.0002 27.9443 27.9446 36 18.0229 36C8.05571 36 0 27.9443 0 18.0227C0 8.05549 8.05571 0 18.0229 0C27.9446 0 36.0002 8.05549 36.0002 18.0227ZM26.5337 16.7484L24.4856 13.7448C23.8939 14.1544 23.3933 14.4272 22.9837 14.6093V8.78377H19.3427V14.4275C19.0393 14.3364 18.7056 14.2606 18.3415 14.1999C17.6588 14.0634 16.976 14.0633 16.2478 14.1088V8.78377H12.6524V14.8826C11.4236 15.3377 10.3313 15.9292 9.46657 16.5209L11.6511 19.4338C11.9545 19.2214 12.2883 19.0243 12.6524 18.8422V27.2162H16.2478V17.7044C16.7485 17.6589 17.2491 17.6587 17.7042 17.7498C18.0683 17.8408 18.478 17.9319 18.8876 18.0684C19.0393 18.0988 19.191 18.1442 19.3427 18.2049V23.3935H22.9837V18.3871C23.9849 18.1596 25.1683 17.6587 26.5337 16.7484ZM43.1456 14.8368C43.8738 13.5928 44.8599 12.6221 46.1039 11.9243C47.3176 11.2264 48.698 10.8776 50.2455 10.8776C52.0356 10.8776 53.6134 11.3327 54.9788 12.243C56.3138 13.1532 57.2544 14.4273 57.8005 16.0657H54.0686C53.7045 15.3072 53.1886 14.7308 52.5211 14.3364C51.8536 13.9419 51.0799 13.7448 50.2 13.7448C49.2594 13.7448 48.425 13.9723 47.6968 14.4275C46.9686 14.8522 46.4074 15.4741 46.0129 16.2933C45.6185 17.0822 45.4212 18.0079 45.4212 19.0698C45.4212 20.1318 45.6185 21.072 46.0129 21.8912C46.4074 22.6801 46.9686 23.3024 47.6968 23.7575C48.425 24.1823 49.2594 24.3944 50.2 24.3944C51.0799 24.3944 51.8536 24.1973 52.5211 23.8028C53.1886 23.4084 53.7045 22.832 54.0686 22.0734H57.8005C57.2544 23.7119 56.3138 24.9864 54.9788 25.8966C53.6438 26.8069 52.066 27.262 50.2455 27.262C48.698 27.262 47.3176 26.9127 46.1039 26.2149C44.8599 25.517 43.8738 24.5464 43.1456 23.3024C42.4478 22.0584 42.0988 20.6476 42.0988 19.0698C42.0988 17.492 42.4478 16.0808 43.1456 14.8368ZM64.2633 14.7915C64.9308 14.397 65.7045 14.1999 66.5844 14.1999V17.5675H65.7196C64.7184 17.5675 63.9598 17.8105 63.444 18.296C62.9282 18.7815 62.6703 19.6159 62.6703 20.7992V27.1251H59.439V14.3817H62.6703V16.3844C63.0648 15.6866 63.5957 15.1556 64.2633 14.7915ZM79.5098 21.7094H70.1798C70.2709 22.65 70.6046 23.3781 71.1811 23.8939C71.7272 24.4097 72.4251 24.6677 73.2747 24.6677C74.458 24.6677 75.3076 24.1517 75.8234 23.1201H79.2823C78.9182 24.3641 78.2204 25.3807 77.1888 26.1695C76.1268 26.9584 74.8373 27.3527 73.3203 27.3527C72.1066 27.3527 71.0142 27.0797 70.0433 26.5335C69.042 25.9874 68.2684 25.2139 67.7222 24.2126C67.2064 23.2113 66.9485 22.0581 66.9485 20.7534C66.9485 19.4487 67.2064 18.2959 67.7222 17.2946C68.2684 16.2934 69.0269 15.5198 69.9978 14.9737C70.9688 14.4276 72.0763 14.1541 73.3203 14.1541C74.5339 14.1541 75.6262 14.4276 76.5971 14.9737C77.5377 15.4895 78.281 16.2176 78.8272 17.1582C79.343 18.1291 79.6009 19.2365 79.6009 20.4805C79.6009 20.9356 79.5705 21.3453 79.5098 21.7094ZM76.2785 19.5703C76.2482 18.751 75.9448 18.0834 75.3683 17.5675C74.7918 17.0821 74.0787 16.8395 73.2291 16.8395C72.4403 16.8395 71.7728 17.0821 71.2266 17.5675C70.6805 18.053 70.3468 18.7207 70.2254 19.5703H76.2785ZM81.2849 17.2946C81.8007 16.2934 82.4985 15.5198 83.3784 14.9737C84.2583 14.4276 85.2444 14.1541 86.3367 14.1541C87.2773 14.1541 88.1117 14.3517 88.8399 14.7461C89.5377 15.1406 90.099 15.6257 90.5238 16.2022V14.3817H93.8008V27.1251H90.5238V25.2593C90.1293 25.8661 89.5681 26.3667 88.8399 26.7611C88.1117 27.1555 87.2622 27.3527 86.2912 27.3527C85.2293 27.3527 84.2583 27.0797 83.3784 26.5335C82.4985 25.9571 81.8007 25.1681 81.2849 24.1668C80.7691 23.1656 80.5111 22.0128 80.5111 20.7081C80.5111 19.4337 80.7691 18.2959 81.2849 17.2946ZM90.0687 18.7511C89.7653 18.1746 89.3557 17.75 88.8399 17.4769C88.3241 17.1735 87.7628 17.0218 87.1559 17.0218C86.5491 17.0218 85.9878 17.158 85.472 17.4311C84.9865 17.7345 84.577 18.1592 84.2432 18.7054C83.9398 19.2818 83.7881 19.9495 83.7881 20.7081C83.7881 21.4666 83.9398 22.1343 84.2432 22.7108C84.577 23.2873 85.0016 23.7424 85.5174 24.0762C86.0332 24.3796 86.5794 24.5313 87.1559 24.5313C87.7628 24.5313 88.3241 24.3796 88.8399 24.0762C89.3557 23.7727 89.7653 23.3326 90.0687 22.7561C90.3721 22.21 90.5238 21.5423 90.5238 20.7534C90.5238 19.9645 90.3721 19.2973 90.0687 18.7511ZM99.9449 17.0218V23.2112C99.9449 23.636 100.036 23.9394 100.218 24.1215C100.43 24.3339 100.779 24.4402 101.265 24.4402H102.767V27.1251H100.764C98.0333 27.1251 96.6679 25.8056 96.6679 23.1659V17.0218H95.1661V14.3817H96.6679V11.2416H99.9449V14.3817H102.767V17.0218H99.9449ZM104.633 12.3336C104.268 11.9695 104.086 11.5144 104.086 10.9683C104.086 10.4221 104.268 9.98244 104.633 9.64868C104.997 9.28458 105.467 9.10245 106.044 9.10245C106.62 9.10245 107.09 9.28458 107.454 9.64868C107.849 9.98244 108.046 10.4221 108.046 10.9683C108.046 11.5144 107.849 11.9695 107.454 12.3336C107.09 12.6977 106.62 12.8799 106.044 12.8799C105.467 12.8799 104.997 12.6977 104.633 12.3336ZM107.636 27.1251H104.405V14.3817H107.636V27.1251ZM115.283 24.1668L118.468 14.3817H121.927L117.194 27.1251H113.28L108.592 14.3817H112.051L115.283 24.1668Z" fill="#051238"/>
<path fill-rule="evenodd" clip-rule="evenodd" d="M134.079 21.7091H124.749C124.84 22.6497 125.159 23.3778 125.705 23.8936C126.281 24.4094 126.979 24.6674 127.799 24.6674C129.012 24.6674 129.862 24.1514 130.347 23.1198H133.852C133.488 24.3638 132.774 25.3804 131.713 26.1692C130.681 26.9581 129.407 27.3524 127.89 27.3524C126.646 27.3524 125.538 27.0794 124.567 26.5333C123.596 25.9871 122.838 25.2136 122.292 24.2123C121.745 23.211 121.472 22.0578 121.472 20.7531C121.472 19.4484 121.745 18.2956 122.292 17.2944C122.838 16.2931 123.581 15.5196 124.522 14.9734C125.493 14.4273 126.615 14.1538 127.89 14.1538C129.103 14.1538 130.18 14.4273 131.121 14.9734C132.092 15.4892 132.85 16.2173 133.397 17.1579C133.912 18.1288 134.17 19.2362 134.17 20.4802C134.17 20.9353 134.14 21.345 134.079 21.7091ZM130.848 19.57C130.818 18.7508 130.514 18.0831 129.938 17.5673C129.361 17.0818 128.648 16.8392 127.799 16.8392C126.979 16.8392 126.312 17.0818 125.796 17.5673C125.25 18.0527 124.901 18.7204 124.749 19.57H130.848ZM153.058 11.0591V27.1248H149.826V20.298H142.954V27.1248H139.723V11.0591H142.954V17.6584H149.826V11.0591H153.058ZM166.712 14.3814V27.1248H163.48V25.5319C163.055 26.078 162.509 26.5182 161.842 26.8519C161.174 27.1553 160.446 27.3071 159.657 27.3071C158.656 27.3071 157.776 27.0945 157.017 26.6697C156.259 26.2449 155.652 25.6231 155.197 24.8039C154.772 23.9847 154.56 22.9986 154.56 21.8456V14.3814H157.791V21.3905C157.791 22.4221 158.034 23.211 158.519 23.7572C159.035 24.3033 159.733 24.5763 160.613 24.5763C161.493 24.5763 162.191 24.3033 162.706 23.7572C163.222 23.211 163.48 22.4221 163.48 21.3905V14.3814H166.712ZM173.083 14.7459C173.811 14.3514 174.646 14.1538 175.586 14.1538C176.679 14.1538 177.665 14.4273 178.545 14.9734C179.425 15.5196 180.122 16.2931 180.638 17.2944C181.154 18.2653 181.412 19.4031 181.412 20.7078C181.412 22.0125 181.154 23.1653 180.638 24.1665C180.122 25.1678 179.425 25.9568 178.545 26.5333C177.665 27.0794 176.679 27.3524 175.586 27.3524C174.615 27.3524 173.781 27.1707 173.083 26.8066C172.355 26.4122 171.779 25.9112 171.354 25.3043V27.1248H168.122V10.1035H171.354V16.2477C171.779 15.6408 172.355 15.1403 173.083 14.7459ZM177.634 18.7051C177.331 18.1589 176.921 17.7342 176.406 17.4308C175.89 17.1577 175.328 17.0215 174.722 17.0215C174.145 17.0215 173.599 17.1732 173.083 17.4766C172.567 17.7497 172.143 18.1744 171.809 18.7508C171.505 19.3273 171.354 19.9946 171.354 20.7531C171.354 21.5116 171.505 22.1793 171.809 22.7558C172.143 23.3323 172.567 23.7724 173.083 24.0759C173.599 24.3793 174.145 24.531 174.722 24.531C175.328 24.531 175.89 24.3793 176.406 24.0759C176.921 23.7421 177.331 23.302 177.634 22.7558C177.938 22.1793 178.09 21.4967 178.09 20.7078C178.09 19.9492 177.938 19.2815 177.634 18.7051Z" fill="#051238"/>
<path d="M22.9835 18.3875V23.3939H19.3426V18.2053C19.1909 18.1446 19.0391 18.0992 18.8874 18.0689C18.4778 17.9323 18.0682 17.8412 17.7041 17.7502C17.249 17.6592 16.7483 17.6593 16.2477 17.7048V27.2166H12.6523V18.8427C12.2882 19.0247 11.9544 19.2218 11.651 19.4342L9.46643 16.5213C10.3312 15.9296 11.4235 15.3381 12.6523 14.883V8.78418H16.2477V14.1092C16.9759 14.0637 17.6586 14.0638 18.3413 14.2003C18.7054 14.261 19.0391 14.3369 19.3426 14.4279V8.78418H22.9835V14.6097C23.3932 14.4276 23.8938 14.1548 24.4855 13.7452L26.5335 16.7488C25.1682 17.6591 23.9848 18.16 22.9835 18.3875Z" fill="white"/>
</svg>
