<svg width="20" height="20" viewBox="0 0 20 20" fill="none" xmlns="http://www.w3.org/2000/svg">
<g id="vuesax/linear/call">
<g id="call">
<g id="call_2">
<path id="Vector" d="M18.3084 15.2753C18.3084 15.5753 18.2417 15.8837 18.1 16.1837C17.9584 16.4837 17.775 16.767 17.5334 17.0337C17.125 17.4837 16.675 17.8087 16.1667 18.017C15.6667 18.2253 15.125 18.3337 14.5417 18.3337C13.6917 18.3337 12.7834 18.1337 11.825 17.7253C10.8667 17.317 9.90835 16.767 8.95835 16.0753C8.00002 15.3753 7.09169 14.6003 6.22502 13.742C5.36669 12.8753 4.59169 11.967 3.90002 11.017C3.21669 10.067 2.66669 9.11699 2.26669 8.17533C1.86669 7.22533 1.66669 6.31699 1.66669 5.45033C1.66669 4.88366 1.76669 4.34199 1.96669 3.84199C2.16669 3.33366 2.48335 2.86699 2.92502 2.45033C3.45835 1.92533 4.04169 1.66699 4.65835 1.66699C4.89169 1.66699 5.12502 1.71699 5.33335 1.81699C5.55002 1.91699 5.74169 2.06699 5.89169 2.28366L7.82502 5.00866C7.97502 5.21699 8.08335 5.40866 8.15835 5.59199C8.23335 5.76699 8.27502 5.94199 8.27502 6.10033C8.27502 6.30033 8.21669 6.50033 8.10002 6.69199C7.99169 6.88366 7.83335 7.08366 7.63335 7.28366L7.00002 7.94199C6.90835 8.03366 6.86669 8.14199 6.86669 8.27533C6.86669 8.34199 6.87502 8.40033 6.89169 8.46699C6.91669 8.53366 6.94169 8.58366 6.95835 8.63366C7.10835 8.90866 7.36669 9.26699 7.73335 9.70033C8.10835 10.1337 8.50835 10.5753 8.94169 11.017C9.39169 11.4587 9.82502 11.867 10.2667 12.242C10.7 12.6087 11.0584 12.8587 11.3417 13.0087C11.3834 13.0253 11.4334 13.0503 11.4917 13.0753C11.5584 13.1003 11.625 13.1087 11.7 13.1087C11.8417 13.1087 11.95 13.0587 12.0417 12.967L12.675 12.342C12.8834 12.1337 13.0834 11.9753 13.275 11.8753C13.4667 11.7587 13.6584 11.7003 13.8667 11.7003C14.025 11.7003 14.1917 11.7337 14.375 11.8087C14.5584 11.8837 14.75 11.992 14.9584 12.1337L17.7167 14.092C17.9334 14.242 18.0834 14.417 18.175 14.6253C18.2584 14.8337 18.3084 15.042 18.3084 15.2753Z" fill="#051238"/>
</g>
</g>
</g>
</svg>
