<svg width="20" height="20" viewBox="0 0 20 20" fill="none" xmlns="http://www.w3.org/2000/svg">
<path d="M18.3083 15.2753C18.3083 15.5753 18.2416 15.8837 18.1 16.1837C17.9583 16.4837 17.775 16.767 17.5333 17.0337C17.125 17.4837 16.675 17.8087 16.1666 18.017C15.6666 18.2253 15.125 18.3337 14.5416 18.3337C13.6916 18.3337 12.7833 18.1337 11.825 17.7253C10.8666 17.317 9.90829 16.767 8.95829 16.0753C7.99996 15.3753 7.09163 14.6003 6.22496 13.742C5.36663 12.8753 4.59163 11.967 3.89996 11.017C3.21663 10.067 2.66663 9.11699 2.26663 8.17533C1.86663 7.22533 1.66663 6.31699 1.66663 5.45033C1.66663 4.88366 1.76663 4.34199 1.96663 3.84199C2.16663 3.33366 2.48329 2.86699 2.92496 2.45033C3.45829 1.92533 4.04163 1.66699 4.65829 1.66699C4.89163 1.66699 5.12496 1.71699 5.33329 1.81699C5.54996 1.91699 5.74163 2.06699 5.89163 2.28366L7.82496 5.00866C7.97496 5.21699 8.08329 5.40866 8.15829 5.59199C8.23329 5.76699 8.27496 5.94199 8.27496 6.10033C8.27496 6.30033 8.21663 6.50033 8.09996 6.69199C7.99163 6.88366 7.83329 7.08366 7.63329 7.28366L6.99996 7.94199C6.90829 8.03366 6.86663 8.14199 6.86663 8.27533C6.86663 8.34199 6.87496 8.40033 6.89163 8.46699C6.91663 8.53366 6.94163 8.58366 6.95829 8.63366C7.10829 8.90866 7.36663 9.26699 7.73329 9.70033C8.10829 10.1337 8.50829 10.5753 8.94163 11.017C9.39163 11.4587 9.82496 11.867 10.2666 12.242C10.7 12.6087 11.0583 12.8587 11.3416 13.0087C11.3833 13.0253 11.4333 13.0503 11.4916 13.0753C11.5583 13.1003 11.625 13.1087 11.7 13.1087C11.8416 13.1087 11.95 13.0587 12.0416 12.967L12.675 12.342C12.8833 12.1337 13.0833 11.9753 13.275 11.8753C13.4666 11.7587 13.6583 11.7003 13.8666 11.7003C14.025 11.7003 14.1916 11.7337 14.375 11.8087C14.5583 11.8837 14.75 11.992 14.9583 12.1337L17.7166 14.092C17.9333 14.242 18.0833 14.417 18.175 14.6253C18.2583 14.8337 18.3083 15.042 18.3083 15.2753Z" fill="#051238"/>
</svg>
