<svg width="20" height="20" viewBox="0 0 20 20" fill="none" xmlns="http://www.w3.org/2000/svg">
<path d="M11.4408 2.92556L12.9074 5.85889C13.1074 6.26723 13.6408 6.6589 14.0908 6.73389L16.7491 7.17556C18.4491 7.45889 18.8491 8.69223 17.6241 9.90889L15.5574 11.9756C15.2074 12.3256 15.0158 13.0006 15.1241 13.4839L15.7158 16.0422C16.1824 18.0672 15.1074 18.8506 13.3158 17.7922L10.8241 16.3172C10.3741 16.0506 9.63243 16.0506 9.1741 16.3172L6.68243 17.7922C4.8991 18.8506 3.81577 18.0589 4.28243 16.0422L4.8741 13.4839C4.98243 13.0006 4.79077 12.3256 4.44077 11.9756L2.3741 9.90889C1.15743 8.69223 1.5491 7.45889 3.2491 7.17556L5.90743 6.73389C6.3491 6.6589 6.88243 6.26723 7.08243 5.85889L8.5491 2.92556C9.3491 1.33389 10.6491 1.33389 11.4408 2.92556Z" fill="#051238"/>
</svg>
