<svg width="42" height="40" viewBox="0 0 42 40" fill="none" xmlns="http://www.w3.org/2000/svg">
<path fill-rule="evenodd" clip-rule="evenodd" d="M21 33.5023L10.8282 39.6297C10.3761 39.9215 9.91071 40.0408 9.43204 39.9878C8.92677 39.9347 8.48797 39.7757 8.11567 39.5104C7.74337 39.2186 7.4642 38.8604 7.27805 38.436C7.0653 38.0116 7.02539 37.5341 7.15836 37.0036L9.83093 25.4252L0.815876 17.6664C0.416981 17.295 0.164387 16.8838 0.0580152 16.4329C-0.0483567 15.9554 -0.00844777 15.4912 0.177703 15.0403C0.337261 14.5893 0.576617 14.2179 0.895733 13.9261C1.21485 13.6608 1.66689 13.4885 2.25194 13.4089L14.139 12.3345L18.7263 1.47226C18.939 0.968272 19.2581 0.596988 19.6836 0.358255C20.1091 0.119522 20.5479 0 21 0C21.4521 0 21.8909 0.119522 22.3164 0.358255C22.7418 0.596988 23.0609 0.968272 23.2737 1.47226L27.861 12.3345L39.748 13.4089C40.3331 13.4885 40.7851 13.6608 41.1042 13.9261C41.4234 14.2179 41.6628 14.5893 41.8224 15.0403C42.0085 15.4912 42.0483 15.9554 41.942 16.4329C41.8356 16.8838 41.583 17.295 41.1841 17.6664L32.169 25.4252L34.8416 37.0036C34.9746 37.5341 34.9347 38.0116 34.7219 38.436C34.5358 38.8604 34.2566 39.2186 33.8843 39.5104C33.512 39.7757 33.0732 39.9347 32.5679 39.9878C32.0893 40.0408 31.6239 39.9215 31.1718 39.6297L21 33.5023ZM13.2615 32.3882L21 27.7329L28.7385 32.4677L26.7042 23.6347L33.5252 17.7857L24.5501 16.9899L21 8.67408L17.4499 16.9102L8.51456 17.706L15.2958 23.6347L13.2615 32.3882Z" fill="white"/>
</svg>
