<svg width="24" height="25" viewBox="0 0 24 25" fill="none" xmlns="http://www.w3.org/2000/svg">
<path d="M12 24.5C18.6312 24.5 24 19.1173 24 12.5C24 5.86879 18.6312 0.5 12 0.5C5.36879 0.5 0 5.86879 0 12.5C0 19.1173 5.36879 24.5 12 24.5Z" fill="#8C94A0"/>
<path d="M9.79662 15.3857L17.3989 7.64464C17.5746 7.45967 17.7874 7.36719 18.0371 7.36719C18.2868 7.36719 18.4995 7.45967 18.6752 7.64464C18.8602 7.82962 18.9527 8.04698 18.9527 8.29669C18.9527 8.54641 18.8602 8.76371 18.6752 8.94868L10.4209 17.3556C10.2452 17.5313 10.0371 17.6192 9.79662 17.6192C9.55616 17.6192 9.34806 17.5313 9.17234 17.3556L5.31565 13.4158C5.13993 13.24 5.05208 13.0273 5.05208 12.7776C5.06133 12.5186 5.15846 12.3013 5.34343 12.1255C5.51915 11.9406 5.73188 11.8481 5.98159 11.8481C6.22205 11.8481 6.43478 11.9406 6.61975 12.1255L9.79662 15.3857Z" fill="white"/>
</svg>
